<?xml version="1.0" standalone="no"?>
<!DOCTYPE svg PUBLIC "-//W3C//DTD SVG 20010904//EN"
 "http://www.w3.org/TR/2001/REC-SVG-20010904/DTD/svg10.dtd">
<svg version="1.0" xmlns="http://www.w3.org/2000/svg"
 width="858.000000pt" height="169.000000pt" viewBox="0 0 858.000000 169.000000"
 preserveAspectRatio="xMidYMid meet">

<g transform="translate(0.000000,169.000000) scale(0.100000,-0.100000)"
fill="#000000" stroke="none">
<path d="M0 910 c0 -738 1 -779 18 -772 9 4 63 31 120 60 205 105 363 158 687
231 108 25 336 58 460 66 50 4 101 9 115 11 79 12 651 25 865 20 572 -15 945
-43 1970 -146 990 -100 1458 -130 2020 -130 1000 1 1441 117 1685 445 85 115
140 278 140 416 0 64 13 95 49 114 43 22 85 19 117 -8 24 -21 27 -31 32 -116
9 -172 -31 -309 -139 -466 -138 -202 -329 -335 -614 -425 -106 -34 -261 -63
-435 -82 -169 -18 -1193 -18 -1490 0 -330 20 -823 63 -1355 118 -1204 124
-1817 162 -2460 151 -780 -14 -1237 -93 -1672 -290 -105 -47 -113 -53 -113
-79 l0 -28 4290 0 4290 0 0 845 0 845 -4290 0 -4290 0 0 -780z m4157 750 c84
-51 23 -190 -72 -166 -81 20 -98 132 -26 171 36 19 60 18 98 -5z m-2939 -162
c2 -70 -1 -108 -8 -108 -5 0 -10 13 -10 29 0 44 -57 121 -110 148 -36 18 -62
22 -127 23 l-83 0 0 -155 c0 -172 -4 -163 70 -149 44 9 110 73 110 107 0 14 5
29 10 32 7 4 10 -48 10 -149 0 -97 -4 -156 -10 -156 -5 0 -10 14 -10 31 0 41
-52 93 -109 109 -72 19 -72 20 -69 -157 l3 -158 70 1 c39 0 94 8 123 18 69 23
148 98 157 150 4 20 12 39 17 42 9 6 5 -96 -8 -188 l-6 -38 -269 0 -269 0 0
333 c0 184 3 337 7 341 4 3 119 5 257 4 l251 -3 3 -107z m5055 106 c5 -6 -22
-52 -271 -457 -67 -108 -122 -199 -122 -202 0 -3 26 -5 58 -5 74 0 161 23 212
55 42 27 100 106 100 136 0 10 5 21 11 25 8 5 10 -8 6 -42 -4 -27 -9 -79 -12
-116 l-7 -68 -299 0 c-164 0 -299 4 -299 9 0 7 338 561 375 614 27 39 20 44
-67 40 -156 -7 -244 -58 -289 -169 l-20 -49 6 90 c3 50 8 102 11 118 l6 27
297 0 c164 0 300 -3 304 -6z m-2388 -180 c8 3 17 1 20 -4 4 -6 -3 -10 -14 -10
-21 0 -21 -5 -21 -205 0 -171 2 -205 14 -205 8 0 17 8 19 18 3 12 5 10 6 -7 1
-14 -12 -36 -33 -57 -38 -38 -77 -44 -126 -19 -55 28 -60 53 -60 275 l0 200
-27 1 c-16 0 1 6 37 13 36 6 76 19 89 28 32 22 61 68 61 95 0 12 3 30 8 40 4
10 8 -22 10 -75 2 -77 5 -93 17 -88z m-1610 -5 c41 -12 84 -54 106 -103 35
-78 39 -76 -136 -76 l-155 0 0 -39 c0 -107 75 -201 162 -201 55 0 118 52 142
115 2 6 6 7 10 3 4 -3 -3 -29 -15 -57 -68 -159 -271 -190 -400 -61 -120 120
-97 302 50 398 54 36 158 45 236 21z m571 -9 c60 -26 84 -56 84 -106 0 -75
-71 -108 -127 -60 -27 23 -27 25 -10 43 26 29 23 98 -5 117 -40 29 -96 16
-119 -26 -33 -62 -28 -213 11 -294 37 -76 129 -106 198 -64 28 17 63 62 76 95
2 6 6 7 10 3 15 -13 -37 -109 -77 -143 -122 -104 -319 -54 -391 100 -54 114
-17 238 94 314 77 52 167 60 256 21z m2337 6 c60 -25 96 -72 112 -143 l7 -33
-156 0 -156 0 0 -32 c0 -185 174 -276 274 -145 15 19 26 39 26 45 0 7 5 12 11
12 24 0 -26 -104 -68 -140 -45 -40 -73 -52 -135 -58 -182 -16 -333 165 -274
331 43 120 151 190 279 180 27 -2 63 -9 80 -17z m1572 -1 c44 -18 79 -55 98
-103 30 -75 35 -72 -138 -72 l-155 0 0 -31 c0 -58 22 -119 59 -160 32 -36 43
-42 86 -46 61 -6 109 22 140 80 11 20 23 37 28 37 15 0 6 -27 -29 -86 -49 -84
-97 -109 -202 -108 -114 1 -189 48 -237 150 -55 117 -10 250 111 324 63 39
167 46 239 15z m658 5 c19 -11 39 -32 45 -46 8 -16 12 -97 12 -234 l0 -210
-90 0 -90 0 0 224 c0 183 -3 226 -15 236 -20 16 -47 5 -86 -35 l-34 -34 -5
-193 -5 -193 -87 -3 -88 -3 0 246 0 245 91 0 91 0 -2 -32 c-3 -53 -2 -54 38
-16 69 68 159 87 225 48z m-5839 -76 c27 -41 52 -74 55 -74 3 0 39 35 80 77
84 89 75 67 -13 -31 l-59 -66 43 -63 c24 -34 71 -103 106 -153 35 -51 64 -95
64 -98 0 -3 -40 -6 -89 -6 l-89 0 -62 93 c-35 50 -66 95 -70 100 -3 4 -46 -38
-94 -93 -49 -55 -93 -100 -98 -100 -5 0 31 47 81 104 50 57 91 108 91 115 0 6
-38 68 -85 137 -47 69 -83 129 -81 132 2 4 42 5 88 4 l83 -4 49 -74z m1676
-143 c0 -179 3 -221 15 -231 20 -16 44 -6 88 36 l37 36 0 189 0 189 90 0 90 0
2 -212 c2 -150 6 -212 15 -215 6 -2 13 4 16 14 4 16 5 16 6 -2 0 -23 -25 -57
-56 -74 -54 -28 -139 5 -150 59 -6 32 -17 38 -30 17 -4 -7 -28 -28 -53 -47
-40 -32 -50 -35 -110 -35 -70 0 -109 19 -129 63 -7 14 -11 103 -11 227 l0 205
90 0 90 0 0 -219z m940 -26 l0 -245 -85 0 -85 0 0 245 0 245 85 0 85 0 0 -245z
m344 100 c38 -80 72 -145 75 -145 3 0 35 66 70 145 35 80 68 145 73 145 5 0 7
-3 5 -7 -7 -12 -183 -403 -201 -445 -8 -21 -19 -38 -23 -38 -4 0 -63 111 -131
245 l-122 245 92 0 93 0 69 -145z m3975 -315 c17 0 41 -62 41 -105 0 -116
-142 -364 -281 -489 -111 -100 -288 -192 -417 -217 -77 -14 -92 -6 -25 14 27
8 74 27 104 42 241 122 407 338 454 589 9 49 23 102 31 117 17 34 54 61 72 54
8 -3 17 -5 21 -5z m-6780 -211 c115 -11 158 -26 135 -49 -5 -5 -126 -14 -269
-20 -143 -6 -300 -15 -350 -20 -49 -6 -133 -15 -185 -21 -230 -25 -474 -79
-712 -155 -259 -83 -98 1 194 102 410 141 823 198 1187 163z"/>
<path d="M2131 1407 c-20 -25 -41 -86 -41 -122 l0 -35 73 0 73 0 -3 38 c-7 73
-14 102 -29 117 -19 19 -58 20 -73 2z"/>
<path d="M5034 1403 c-24 -25 -44 -77 -44 -118 l0 -36 72 3 72 3 -3 49 c-3 55
-16 97 -34 108 -20 13 -45 9 -63 -9z"/>
<path d="M6604 1403 c-24 -25 -44 -77 -44 -118 l0 -35 73 0 73 0 -6 63 c-4 34
-12 73 -19 85 -14 27 -52 29 -77 5z"/>
</g>
</svg>
